PathFileType	4	(X/Y/Z)	E:\3-PhD\Data\MocapData\ElaboratedData\009\pre\dynamicElaborations\RunL3\RunL3.trc
DataRate	CameraRate	NumFrames	NumMarkers	Units	OrigDataRate	DataStartFrame
200	200	4	54	mm	200	301
Frame#	Time	FHD			LBHD			RBHD			C7			T10			CLAV			LSHO			LUUPA			LMUPA			LDUPA			LLEP			LMEP			LRAD			LUL			LRFIN			RSHO			RUPA1			RMUPA			RDUPA			RLEP			RMEP			RRAD			RUL			RUFIN			RASI			USACR			LSACR			RSACR			LTHI1			LTHI2			LTHI3			LTHI4			LTIB1			LTIB2			LTIB3			LTIB4			LLMAL			LHEE			LMT1			LMT2			RTHI			RTHI2			RTHI3			RTHI4			RLFC			RTIB1			RTIB2			RTIB3			RTIB4			RLMAL			RHEE			RMT1			RMT2			RMT5		
		X1	Y1	Z1	X2	Y2	Z2	X3	Y3	Z3	X4	Y4	Z4	X5	Y5	Z5	X6	Y6	Z6	X7	Y7	Z7	X8	Y8	Z8	X9	Y9	Z9	X10	Y10	Z10	X11	Y11	Z11	X12	Y12	Z12	X13	Y13	Z13	X14	Y14	Z14	X15	Y15	Z15	X16	Y16	Z16	X17	Y17	Z17	X18	Y18	Z18	X19	Y19	Z19	X20	Y20	Z20	X21	Y21	Z21	X22	Y22	Z22	X23	Y23	Z23	X24	Y24	Z24	X25	Y25	Z25	X26	Y26	Z26	X27	Y27	Z27	X28	Y28	Z28	X29	Y29	Z29	X30	Y30	Z30	X31	Y31	Z31	X32	Y32	Z32	X33	Y33	Z33	X34	Y34	Z34	X35	Y35	Z35	X36	Y36	Z36	X37	Y37	Z37	X38	Y38	Z38	X39	Y39	Z39	X40	Y40	Z40	X41	Y41	Z41	X42	Y42	Z42	X43	Y43	Z43	X44	Y44	Z44	X45	Y45	Z45	X46	Y46	Z46	X47	Y47	Z47	X48	Y48	Z48	X49	Y49	Z49	X50	Y50	Z50	X51	Y51	Z51	X52	Y52	Z52	X53	Y53	Z53	X54	Y54	Z54	

331	1.650000	32.051625	1467.158024	886.934853	-94.584149	1452.292627	736.818905	-112.593934	1448.913117	864.179418	-173.567677	1336.758815	779.630971	-355.518951	1039.203609	718.384273	-82.997487	1202.432520	801.311938	-71.531313	1288.199041	673.912422	-103.137878	1169.763973	518.051217	-64.725737	1140.736964	517.332142	-99.238385	1114.041072	476.070277	-96.850068	1008.923526	422.078289	-121.057837	956.334943	476.827339	88.747686	1060.151457	587.071499	129.802293	1014.457778	545.272543	140.033962	1112.617455	578.969311	-161.563375	1273.324621	950.910566	-333.150026	1235.418182	996.662495	-345.714238	1189.118412	996.486888	-397.997012	1219.477687	998.539522	-529.421594	1165.428213	995.495852	-534.795876	1178.652245	923.024926	-486.471007	919.568569	904.691496	-548.067648	910.408434	946.128594	-456.965053	856.870655	938.419780	-233.786146	816.811283	788.854609	-389.937155	943.306454	693.620169	-387.046588	923.049523	656.464982	-398.764529	902.963309	710.131069	-265.943591	721.448799	398.482850	-250.439524	645.269823	365.796560	-210.374804	628.517520	384.166986	-289.536093	606.195125	339.044799	-362.019101	340.600575	225.889861	-422.560136	369.487292	169.011495	-398.525731	335.244455	181.470564	-446.576504	265.371889	164.867245	-570.111083	202.048642	76.792508	-659.885927	213.082330	98.550421	-523.144335	47.822103	111.439921	-515.147856	60.357533	67.973909	-184.270744	622.391313	850.233997	-123.661941	615.354691	871.668734	-103.013489	642.692412	877.968449	-70.420645	550.605085	848.839785	23.926006	496.550709	843.729861	178.335167	346.717567	783.370588	148.563622	243.309424	758.463596	190.907643	262.217965	766.296763	230.091174	242.963997	732.096141	216.870367	131.135077	705.695403	196.034499	101.524544	617.180580	395.847363	160.055156	708.034216	383.821672	138.644732	739.112551	340.952249	84.083765	757.294765	
332	1.655000	54.859950	1470.587557	901.084101	-71.892821	1455.205251	751.038783	-89.688804	1452.140860	878.484891	-150.042549	1339.423897	792.887429	-328.872296	1040.901619	726.773215	-59.246148	1205.752391	814.989979	-46.607166	1291.252459	687.298146	-80.238278	1174.583721	530.187397	-42.160979	1145.031694	528.797124	-77.466033	1119.409029	487.447543	-76.646838	1014.952163	431.974465	-101.039369	961.758840	486.250488	112.727480	1059.795280	594.928264	152.336829	1014.292771	551.165092	164.551264	1111.630398	586.592910	-139.889953	1275.222156	963.809155	-311.944783	1238.086265	1006.302204	-324.621388	1191.901202	1005.864636	-376.847097	1222.460341	1006.726595	-508.529800	1168.676581	1001.466535	-511.948633	1181.288137	928.443579	-458.509471	922.645169	912.406223	-520.839015	912.704161	952.664146	-428.705681	860.650128	947.238141	-208.008078	818.330019	798.418722	-362.475510	945.823102	701.155297	-359.117099	925.767046	663.859004	-371.690135	905.409924	717.142299	-240.001756	723.838994	408.627278	-227.077522	646.603066	377.057277	-188.153256	628.375848	396.222632	-267.457547	608.831615	350.103423	-346.996178	345.366120	236.000170	-406.427903	375.159559	178.363438	-382.847015	340.643902	190.982516	-431.285043	271.272854	173.104865	-554.458079	209.925838	82.637523	-642.826957	225.743543	106.227506	-518.862210	49.920847	114.155859	-509.964220	62.843751	70.729071	-159.067226	620.245720	855.949255	-98.505392	611.912678	877.204005	-77.285209	638.663428	883.542274	-46.464706	546.371240	853.443985	47.934862	491.560754	847.605146	206.692811	344.602284	792.762227	180.319452	240.121821	768.450788	221.910111	260.167995	777.175238	262.576991	241.435681	744.295589	253.310162	128.876475	718.607134	234.569907	98.824551	630.053718	432.082346	160.205399	723.835169	419.954950	138.373206	754.577310	377.659420	83.193075	772.286499	
333	1.660000	77.465207	1473.785687	915.229150	-49.336572	1457.956407	765.194403	-66.977085	1455.116392	892.711310	-126.646668	1341.907568	806.088178	-302.253722	1042.448279	735.288391	-35.613846	1208.867771	828.503029	-21.844336	1294.225692	700.565611	-57.411530	1179.326881	542.330544	-19.743158	1149.192156	540.356452	-55.820240	1124.688390	498.915333	-56.728373	1020.863428	441.954443	-81.276966	967.125918	495.818758	136.774482	1059.010311	602.241875	174.643713	1013.569275	556.560546	189.252187	1110.021412	593.477231	-118.175445	1276.820238	976.557582	-290.575774	1240.164519	1016.043497	-303.329133	1194.096086	1015.249079	-355.534963	1224.794442	1015.215841	-487.279903	1171.169588	1007.691003	-488.908787	1183.246916	934.203069	-430.274535	925.112784	920.720897	-493.264559	914.363654	959.831682	-400.152365	863.864674	956.710582	-182.210512	819.667814	808.121924	-334.946628	948.166506	708.929032	-331.172597	928.289856	671.506209	-344.598015	907.705440	724.402785	-213.637033	726.060674	418.917061	-203.068995	647.859702	388.342970	-165.318317	628.345460	408.276222	-244.621127	611.382398	361.211543	-330.862897	350.024276	246.287346	-389.308477	380.707387	188.080871	-366.149572	345.919837	200.777621	-415.068453	277.089806	181.795834	-538.014319	217.834923	89.263096	-624.735168	238.297475	114.864013	-513.432997	53.061113	117.692967	-503.748547	66.133586	74.188177	-133.760121	617.677638	861.858853	-73.236629	608.053260	882.878642	-51.413720	634.217754	889.154517	-22.398015	541.790319	858.146499	72.003185	486.443102	851.649287	233.985830	342.036570	801.684574	210.297001	236.904444	777.798202	251.293915	257.770381	787.362673	293.293492	239.458910	755.704323	287.308716	126.453803	730.422500	270.519034	96.402233	641.750966	465.927354	159.207704	738.694860	453.545080	136.923249	769.024599	411.528969	81.316410	786.059080	
334	1.665000	99.863706	1476.759456	929.343963	-26.895352	1460.520774	779.252577	-44.457658	1457.822907	906.816716	-103.373994	1344.164660	819.193754	-275.679877	1043.833041	743.941060	-12.065582	1211.749522	841.836808	2.764107	1297.073388	713.682668	-34.614959	1183.949978	554.451264	2.574559	1153.178637	551.986640	-34.240636	1129.830518	510.446028	-37.031773	1026.620606	451.984010	-61.716784	972.394524	505.500989	160.885278	1057.814537	608.970432	196.712372	1012.303145	561.452453	214.118700	1107.807415	599.571574	-96.431106	1278.104395	989.135086	-269.078381	1241.661243	1025.872179	-281.862777	1195.706836	1024.675244	-334.126777	1226.488850	1024.025694	-465.706602	1172.830285	1014.213934	-465.727818	1184.448973	940.337698	-401.796048	926.934486	929.631741	-465.356382	915.328118	967.631950	-371.318047	866.475171	966.793222	-156.407767	820.782967	817.939992	-307.384733	950.307607	716.969592	-303.260555	930.595673	679.428483	-317.510740	909.818006	731.940055	-186.855361	728.042792	429.315168	-178.361719	648.936366	399.585270	-141.794560	628.366183	420.244805	-220.970780	613.777398	372.267343	-313.602556	354.454782	256.640200	-371.210105	386.063434	198.112325	-348.456110	350.985997	210.774516	-398.012176	282.781503	190.878677	-520.967702	225.843555	96.704756	-605.846697	250.692210	124.399031	-506.719881	57.317870	122.195933	-496.422830	70.321245	78.516041	-108.383556	614.761569	867.992813	-47.884293	603.885352	888.705202	-25.450399	629.481075	894.843149	1.777967	537.001677	862.972965	96.093528	481.326274	855.960999	260.248833	339.007960	810.070528	238.507922	233.593317	786.438654	279.107867	254.958535	796.753241	322.256158	236.951831	766.172082	318.819589	123.742870	741.001495	303.786275	94.095001	652.124778	497.378005	156.941030	752.334553	484.604048	134.207453	782.202579	442.562441	78.380994	798.410240	
